<?xml version="1.0" standalone="no"?><svg xmlns="http://www.w3.org/2000/svg" viewBox="0 0 1440 320"><path fill="#CAD3C8" fill-opacity="1" d="M0,0L26.7,10.7C53.3,21,107,43,160,64C213.3,85,267,107,320,106.7C373.3,107,427,85,480,90.7C533.3,96,587,128,640,144C693.3,160,747,160,800,170.7C853.3,181,907,203,960,192C1013.3,181,1067,139,1120,149.3C1173.3,160,1227,224,1280,240C1333.3,256,1387,224,1413,208L1440,192L1440,320L1413.3,320C1386.7,320,1333,320,1280,320C1226.7,320,1173,320,1120,320C1066.7,320,1013,320,960,320C906.7,320,853,320,800,320C746.7,320,693,320,640,320C586.7,320,533,320,480,320C426.7,320,373,320,320,320C266.7,320,213,320,160,320C106.7,320,53,320,27,320L0,320Z"></path></svg>