<svg width="33" height="34" viewBox="0 0 33 34" fill="none" xmlns="http://www.w3.org/2000/svg">
<g clip-path="url(#clip0)">
<path d="M19.25 33.5657V28.0832C19.3016 27.4077 19.213 26.7286 18.9901 26.0911C18.7673 25.4536 18.4153 24.8722 17.9575 24.3857C22.275 23.8899 26.8125 22.2041 26.8125 14.4691C26.8121 12.4911 26.0737 10.5891 24.75 9.15656C25.3768 7.42611 25.3325 5.51339 24.6262 3.81573C24.6262 3.81573 23.0038 3.31989 19.25 5.91239C16.0985 5.03239 12.7765 5.03239 9.625 5.91239C5.87125 3.31989 4.24875 3.81573 4.24875 3.81573C3.54252 5.51339 3.4982 7.42611 4.125 9.15656C2.79142 10.5997 2.05222 12.519 2.0625 14.5116C2.0625 22.1899 6.6 23.8757 10.9175 24.4282C10.4651 24.9099 10.1162 25.4842 9.89355 26.1139C9.67086 26.7437 9.57936 27.4147 9.625 28.0832V33.5657M9.625 29.3157C2.75 31.4407 2.75 25.7741 0 25.0657L9.625 29.3157Z" stroke="#535353" stroke-width="2" stroke-linecap="round" stroke-linejoin="round"/>
</g>
<defs>
<clipPath id="clip0">
<rect width="33" height="34" fill="white"/>
</clipPath>
</defs>
</svg>
