<svg width="27" height="29" viewBox="0 0 27 29" fill="none" xmlns="http://www.w3.org/2000/svg">
<path fill-rule="evenodd" clip-rule="evenodd" d="M20.7773 18.1597C20.7773 15.8744 19.1579 14.0583 17.3547 14.0583C15.977 14.0583 14.7589 14.0583 13.9496 15.9713C13.8002 16.3245 13.6273 17.3529 13.6273 17.8615V27.7383H9.25V15.193V9.00515H13.7955L14.0197 11.4455H14.1178C14.7741 10.2859 16.2656 9.00515 18.9565 9.00515C22.2368 9.00515 25.1773 11.8538 25.1773 17.0754V27.7383H20.7773V18.1597ZM3.35622 6.77885C1.92412 6.77885 1 5.66706 1 4.29332C1 2.88617 1.95403 1.80606 3.41499 1.80606C4.87595 1.80606 5.77121 2.8856 5.80112 4.29332C5.80165 5.66706 4.87648 6.77885 3.35622 6.77885ZM1.52731 27.7383L1.52731 9.00515H5.37082L5.37082 27.7383H1.52731Z" stroke="#535353" stroke-width="2"/>
</svg>
