<svg width="28" height="27" viewBox="0 0 28 27" fill="none" xmlns="http://www.w3.org/2000/svg">
<path fill-rule="evenodd" clip-rule="evenodd" d="M23.5682 5.34969C23.5682 5.34969 25.6076 5.15912 26.426 4.43681C26.426 4.43681 26.2298 5.26832 23.7758 7.89919C23.7758 7.89919 24.602 22.0949 12.0119 25.5716C12.0119 25.5716 5.62686 27.1846 1 23.0699C1 23.0699 5.84354 24.0891 8.56859 20.5247C8.56859 20.5247 5.05348 20.5668 3.94173 16.3257C3.94173 16.3257 5.26895 16.6647 6.0578 16.2407C6.0578 16.2407 2.07614 15.2643 2.14796 10.1318C2.14796 10.1318 3.2241 11.0654 4.19221 10.8955C4.19221 10.8955 0.605878 7.28894 2.82938 2.79377C2.82938 2.79377 7.63489 9.51369 13.5908 9.1147C13.487 8.63364 13.4308 8.12973 13.4308 7.6087C13.4308 4.26765 15.7225 1.55756 18.549 1.55756C19.977 1.55756 21.2686 2.24989 22.1975 3.36548C22.8783 3.37904 24.2785 3.23557 25.677 2.05147C25.677 2.05218 25.7573 3.3462 23.5682 5.34969Z" stroke="#535353" stroke-width="2" stroke-linecap="round" stroke-linejoin="round"/>
</svg>
