<svg width="23" height="23" viewBox="0 0 23 23" fill="none" xmlns="http://www.w3.org/2000/svg">
<path fill-rule="evenodd" clip-rule="evenodd" d="M11.5 0C5.14841 0 0 5.14841 0 11.5C0 17.8509 5.14841 23 11.5 23C17.8509 23 23 17.8516 23 11.5C23 5.14841 17.8509 0 11.5 0ZM11.5 21.5625C5.94263 21.5625 1.4375 17.0574 1.4375 11.5C1.4375 5.94263 5.94263 1.4375 11.5 1.4375C17.0574 1.4375 21.5625 5.94263 21.5625 11.5C21.5625 17.0574 17.0574 21.5625 11.5 21.5625Z" fill="#2C3A47"/>
<path fill-rule="evenodd" clip-rule="evenodd" d="M16.3365 15.2885L12.5501 11.5014L16.3149 7.76753C16.5988 7.4865 16.5988 7.03153 16.3149 6.75121C16.0317 6.4709 15.5717 6.4709 15.2885 6.75121L11.5287 10.4801L7.7129 6.66353C7.42972 6.3789 6.96972 6.3789 6.68653 6.66353C6.40334 6.94743 6.40334 7.40887 6.68653 7.69278L10.4966 11.5036L6.66497 15.3036C6.38178 15.5847 6.38178 16.0396 6.66497 16.3199C6.94815 16.601 7.40815 16.601 7.69206 16.3199L11.5187 12.5249L15.3108 16.3171C15.594 16.6017 16.054 16.6017 16.3372 16.3171C16.6197 16.0339 16.6197 15.5732 16.3365 15.2885Z" fill="#2C3A47"/>
</svg>
